<svg xmlns="http://www.w3.org/2000/svg" style="display:none">
<symbol id="icon-chevron-left" viewBox="0 0 24 24"><polyline points="15 18 9 12 15 6" fill="none" stroke="currentColor" stroke-width="2" stroke-linecap="round" stroke-linejoin="round"/></symbol>
<symbol id="icon-chevron-right" viewBox="0 0 24 24"><polyline points="9 18 15 12 9 6" fill="none" stroke="currentColor" stroke-width="2" stroke-linecap="round" stroke-linejoin="round"/></symbol>
<symbol id="icon-chevrons-left" viewBox="0 0 24 24"><polyline points="17 3 7 12 17 21" fill="none" stroke="currentColor" stroke-width="2" stroke-linecap="round" stroke-linejoin="round"/><polyline points="13 3 3 12 13 21" fill="none" stroke="currentColor" stroke-width="2" stroke-linecap="round" stroke-linejoin="round"/></symbol>
<symbol id="icon-chevrons-right" viewBox="0 0 24 24"><polyline points="7 3 17 12 7 21" fill="none" stroke="currentColor" stroke-width="2" stroke-linecap="round" stroke-linejoin="round"/><polyline points="11 3 21 12 11 21" fill="none" stroke="currentColor" stroke-width="2" stroke-linecap="round" stroke-linejoin="round"/></symbol>
<symbol id="icon-sun" viewBox="0 0 24 24">
<circle cx="12" cy="12" r="5" fill="none" stroke="currentColor" stroke-width="2"/>
<path d="M12 1v3M12 20v3M4.22 4.22l2.12 2.12M17.66 17.66l2.12 2.12M1 12h3M20 12h3M4.22 19.78l2.12-2.12M17.66 6.34l2.12-2.12" fill="none" stroke="currentColor" stroke-width="2" stroke-linecap="round"/>
</symbol>
<symbol id="icon-moon" viewBox="0 0 24 24">
<path d="M21 12.79A9 9 0 1 1 11.21 3 7 7 0 0 0 21 12.79z" fill="none" stroke="currentColor" stroke-width="2" stroke-linecap="round" stroke-linejoin="round"/>
</symbol>
<symbol id="icon-pencil" viewBox="0 0 24 24">
<path d="M12 20h9" fill="none" stroke="currentColor" stroke-width="2" stroke-linecap="round"/>
<path d="M16.5 3.5a2.121 2.121 0 0 1 3 3L7 19 3 20l1-4 12.5-12.5z" fill="none" stroke="currentColor" stroke-width="2" stroke-linecap="round" stroke-linejoin="round"/>
</symbol>
<symbol id="icon-lock" viewBox="0 0 24 24">
<rect x="3" y="10" width="18" height="11" rx="2" ry="2" fill="none" stroke="currentColor" stroke-width="2"/>
<path d="M7 10V7a5 5 0 0 1 10 0v3" fill="none" stroke="currentColor" stroke-width="2" stroke-linecap="round"/>
</symbol>
<symbol id="icon-copy" viewBox="0 0 24 24">
<rect x="9" y="9" width="13" height="13" rx="2" ry="2" fill="none" stroke="currentColor" stroke-width="2"/>
<path d="M5 15H4a2 2 0 0 1-2-2V4a2 2 0 0 1 2-2h9a2 2 0 0 1 2 2v1" fill="none" stroke="currentColor" stroke-width="2" stroke-linecap="round"/>
</symbol>
</svg>